<svg width="16" height="17" viewBox="0 0 16 17" fill="none" xmlns="http://www.w3.org/2000/svg">
<path d="M5.02363 13.68V3.90545H8.32636C9.09 3.90545 9.71681 4.03591 10.2068 4.29682C10.6968 4.55455 11.0595 4.90932 11.295 5.36114C11.5305 5.81296 11.6482 6.32682 11.6482 6.90273C11.6482 7.47864 11.5305 7.98932 11.295 8.43477C11.0595 8.88023 10.6984 9.23023 10.2116 9.48477C9.72477 9.73614 9.10272 9.86182 8.34545 9.86182H5.67272V8.79273H8.30727C8.82909 8.79273 9.24909 8.71636 9.56727 8.56364C9.88863 8.41091 10.1209 8.19455 10.2641 7.91455C10.4105 7.63136 10.4836 7.29409 10.4836 6.90273C10.4836 6.51136 10.4105 6.16932 10.2641 5.87659C10.1177 5.58386 9.88386 5.35796 9.5625 5.19886C9.24113 5.03659 8.81636 4.95545 8.28818 4.95545H6.20727V13.68H5.02363ZM9.62454 9.28909L12.03 13.68H10.6555L8.28818 9.28909H9.62454Z" fill="#05344A"/>
<rect x="0.32" y="1" width="15.36" height="15.36" stroke="#05344A" stroke-width="0.64"/>
</svg>
