<svg width="157" height="40" viewBox="0 0 157 40" fill="none" xmlns="http://www.w3.org/2000/svg">
<path d="M12.3128 32V8.04278H20.4077C22.2794 8.04278 23.8157 8.36252 25.0167 9.002C26.2177 9.63369 27.1067 10.5032 27.6838 11.6106C28.2609 12.718 28.5495 13.9775 28.5495 15.389C28.5495 16.8006 28.2609 18.0522 27.6838 19.144C27.1067 20.2359 26.2216 21.0937 25.0284 21.7176C23.8352 22.3337 22.3106 22.6417 20.4545 22.6417H13.9037V20.0214H20.361C21.6399 20.0214 22.6693 19.8342 23.4492 19.4599C24.2368 19.0856 24.8061 18.5553 25.1571 17.869C25.5158 17.1749 25.6952 16.3483 25.6952 15.389C25.6952 14.4298 25.5158 13.5915 25.1571 12.874C24.7983 12.1565 24.2252 11.6028 23.4375 11.2129C22.6498 10.8152 21.6087 10.6163 20.3142 10.6163H15.2139V32H12.3128ZM23.5896 21.238L29.4853 32H26.1163L20.3142 21.238H23.5896Z" fill="#05344A"/>
<rect x="0.784314" y="0.784314" width="37.6471" height="37.6471" stroke="#05344A" stroke-width="1.56863"/>
<path d="M43.9011 32V8.04278H58.3596V10.6163H46.8021V18.7112H57.611V21.2848H46.8021V29.4265H58.5468V32H43.9011ZM82.5859 8.04278V32H79.7784L66.7236 13.1898H66.4896V32H63.5886V8.04278H66.3961L79.4977 26.8997H79.7316V8.04278H82.5859ZM87.0808 10.6163V8.04278H105.049V10.6163H97.5153V32H94.6142V10.6163H87.0808ZM112.427 8.04278V32H109.526V8.04278H112.427ZM118.244 32V8.04278H132.609V10.6163H121.145V18.7112H131.533V21.2848H121.145V32H118.244ZM135.519 8.04278H138.841L145.485 19.2259H145.766L152.41 8.04278H155.733L147.076 22.127V32H144.175V22.127L135.519 8.04278Z" fill="#05344A"/>
</svg>
